<svg width="390" height="200" viewBox="0 0 390 200" fill="none" xmlns="http://www.w3.org/2000/svg">
    <defs>
        <linearGradient id="bgGradient" x1="0%" y1="0%" x2="100%" y2="100%">
            <stop offset="0%" stop-color="#4158D0" />
            <stop offset="100%" stop-color="#6A82FB" />
        </linearGradient>
    </defs>
    
    <!-- Background -->
    <rect width="390" height="200" fill="url(#bgGradient)" />
    
    <!-- Library shelves -->
    <rect x="20" y="20" width="350" height="40" rx="2" fill="#8B4513" />
    <rect x="20" y="70" width="350" height="40" rx="2" fill="#8B4513" />
    <rect x="20" y="120" width="350" height="40" rx="2" fill="#8B4513" />
    
    <!-- Books on shelves -->
    <g>
        <!-- Top shelf -->
        <rect x="30" y="25" width="15" height="30" fill="#FF5252" />
        <rect x="48" y="25" width="15" height="30" fill="#7C4DFF" />
        <rect x="66" y="25" width="15" height="30" fill="#FF9800" />
        <rect x="84" y="25" width="15" height="30" fill="#4CAF50" />
        <rect x="102" y="25" width="15" height="30" fill="#2196F3" />
        <rect x="120" y="25" width="15" height="30" fill="#E91E63" />
        <rect x="138" y="25" width="15" height="30" fill="#9C27B0" />
        <rect x="156" y="25" width="15" height="30" fill="#FFEB3B" />
        <rect x="174" y="25" width="15" height="30" fill="#00BCD4" />
        <rect x="192" y="25" width="15" height="30" fill="#795548" />
        <rect x="210" y="25" width="15" height="30" fill="#607D8B" />
        <rect x="228" y="25" width="15" height="30" fill="#F44336" />
        <rect x="246" y="25" width="15" height="30" fill="#3F51B5" />
        <rect x="264" y="25" width="15" height="30" fill="#FFC107" />
        <rect x="282" y="25" width="15" height="30" fill="#009688" />
        <rect x="300" y="25" width="15" height="30" fill="#673AB7" />
        <rect x="318" y="25" width="15" height="30" fill="#CDDC39" />
        <rect x="336" y="25" width="15" height="30" fill="#FF5722" />
        
        <!-- Middle shelf -->
        <rect x="30" y="75" width="15" height="30" fill="#3F51B5" />
        <rect x="48" y="75" width="15" height="30" fill="#FF5252" />
        <rect x="66" y="75" width="15" height="30" fill="#4CAF50" />
        <rect x="84" y="75" width="15" height="30" fill="#FF9800" />
        <rect x="102" y="75" width="15" height="30" fill="#E91E63" />
        <rect x="120" y="75" width="15" height="30" fill="#2196F3" />
        <rect x="138" y="75" width="15" height="30" fill="#FFEB3B" />
        <rect x="156" y="75" width="15" height="30" fill="#9C27B0" />
        <rect x="174" y="75" width="15" height="30" fill="#795548" />
        <rect x="192" y="75" width="15" height="30" fill="#00BCD4" />
        <rect x="210" y="75" width="15" height="30" fill="#F44336" />
        <rect x="228" y="75" width="15" height="30" fill="#607D8B" />
        <rect x="246" y="75" width="15" height="30" fill="#FFC107" />
        <rect x="264" y="75" width="15" height="30" fill="#673AB7" />
        <rect x="282" y="75" width="15" height="30" fill="#CDDC39" />
        <rect x="300" y="75" width="15" height="30" fill="#009688" />
        <rect x="318" y="75" width="15" height="30" fill="#7C4DFF" />
        <rect x="336" y="75" width="15" height="30" fill="#FF5722" />
        
        <!-- Bottom shelf -->
        <rect x="30" y="125" width="15" height="30" fill="#FFC107" />
        <rect x="48" y="125" width="15" height="30" fill="#009688" />
        <rect x="66" y="125" width="15" height="30" fill="#F44336" />
        <rect x="84" y="125" width="15" height="30" fill="#673AB7" />
        <rect x="102" y="125" width="15" height="30" fill="#CDDC39" />
        <rect x="120" y="125" width="15" height="30" fill="#FF5722" />
        <rect x="138" y="125" width="15" height="30" fill="#3F51B5" />
        <rect x="156" y="125" width="15" height="30" fill="#FF5252" />
        <rect x="174" y="125" width="15" height="30" fill="#4CAF50" />
        <rect x="192" y="125" width="15" height="30" fill="#FF9800" />
        <rect x="210" y="125" width="15" height="30" fill="#E91E63" />
        <rect x="228" y="125" width="15" height="30" fill="#2196F3" />
        <rect x="246" y="125" width="15" height="30" fill="#FFEB3B" />
        <rect x="264" y="125" width="15" height="30" fill="#9C27B0" />
        <rect x="282" y="125" width="15" height="30" fill="#795548" />
        <rect x="300" y="125" width="15" height="30" fill="#00BCD4" />
        <rect x="318" y="125" width="15" height="30" fill="#607D8B" />
        <rect x="336" y="125" width="15" height="30" fill="#7C4DFF" />
    </g>
    
    <!-- Reading table -->
    <rect x="120" y="170" width="150" height="10" rx="2" fill="#8B4513" />
    <rect x="130" y="180" width="130" height="5" fill="#A0522D" />
    
    <!-- Open book -->
    <path d="M165 155 L165 170 L195 170 L195 155 C185 150, 175 150, 165 155 Z" fill="white" />
    <path d="M195 155 L195 170 L225 170 L225 155 C215 150, 205 150, 195 155 Z" fill="white" />
    <line x1="195" y1="155" x2="195" y2="170" stroke="#333" stroke-width="1" />
    
    <!-- Text -->
    <text x="195" y="190" font-family="Arial" font-size="16" fill="white" text-anchor="middle" font-weight="bold">读书分享会</text>
</svg> 