<svg xmlns="http://www.w3.org/2000/svg" width="200" height="300" viewBox="0 0 200 300">
  <defs>
    <linearGradient id="poster-grad" x1="0%" y1="0%" x2="100%" y2="100%">
      <stop offset="0%" style="stop-color:#e0e7ff;stop-opacity:1" />
      <stop offset="100%" style="stop-color:#c7d2fe;stop-opacity:1" />
    </linearGradient>
    <filter id="shadow" x="-10%" y="-10%" width="120%" height="120%">
      <feDropShadow dx="0" dy="2" stdDeviation="3" flood-opacity="0.3" />
    </filter>
  </defs>
  
  <!-- Background -->
  <rect width="100%" height="100%" fill="url(#poster-grad)" rx="8"/>
  
  <!-- Film Frame -->
  <rect x="15" y="15" width="170" height="220" rx="4" fill="#f8fafc" fill-opacity="0.8" filter="url(#shadow)"/>
  
  <!-- Film Header -->
  <rect x="25" y="25" width="150" height="30" rx="3" fill="#6366f1" fill-opacity="0.7"/>
  <circle cx="45" cy="40" r="5" fill="#fff" fill-opacity="0.8"/>
  <circle cx="65" cy="40" r="5" fill="#fff" fill-opacity="0.8"/>
  <circle cx="85" cy="40" r="5" fill="#fff" fill-opacity="0.8"/>
  
  <!-- Film Content Symbol -->
  <circle cx="100" cy="120" r="40" fill="#8b5cf6" fill-opacity="0.5"/>
  <path d="M85,120 L125,120 M105,100 L105,140" stroke="#fff" stroke-width="4" stroke-linecap="round"/>
  
  <!-- Film Details -->
  <rect x="35" y="180" width="130" height="10" rx="2" fill="#64748b"/>
  <rect x="55" y="200" width="90" height="10" rx="2" fill="#94a3b8"/>
  <rect x="65" y="220" width="70" height="10" rx="2" fill="#cbd5e1"/>
  
  <!-- Film Footer -->
  <rect x="35" y="250" width="130" height="25" rx="3" fill="#6366f1" fill-opacity="0.3"/>
  <rect x="45" y="260" width="50" height="6" rx="1" fill="#6366f1"/>
  <rect x="105" y="260" width="50" height="6" rx="1" fill="#6366f1"/>
</svg> 