<svg xmlns="http://www.w3.org/2000/svg" width="400" height="200" viewBox="0 0 400 200">
  <defs>
    <linearGradient id="grad1" x1="0%" y1="0%" x2="100%" y2="100%">
      <stop offset="0%" style="stop-color:#c4b5fd;stop-opacity:1" />
      <stop offset="100%" style="stop-color:#818cf8;stop-opacity:1" />
    </linearGradient>
    <filter id="blur" x="-5%" y="-5%" width="110%" height="110%">
      <feGaussianBlur in="SourceGraphic" stdDeviation="3" />
    </filter>
    <pattern id="pattern" x="0" y="0" width="20" height="20" patternUnits="userSpaceOnUse">
      <circle cx="10" cy="10" r="1" fill="#fff" fill-opacity="0.1"/>
    </pattern>
  </defs>
  <rect width="100%" height="100%" fill="url(#grad1)"/>
  <rect width="100%" height="100%" fill="url(#pattern)"/>
  
  <!-- Decorative Elements -->
  <circle cx="50" cy="80" r="30" fill="#fff" fill-opacity="0.1" filter="url(#blur)"/>
  <circle cx="350" cy="40" r="20" fill="#fff" fill-opacity="0.1" filter="url(#blur)"/>
  <circle cx="200" cy="20" r="25" fill="#fff" fill-opacity="0.15" filter="url(#blur)"/>
  
  <!-- Film Reel Elements -->
  <g transform="translate(30, 150)">
    <circle cx="0" cy="0" r="15" fill="#444" fill-opacity="0.7"/>
    <circle cx="0" cy="0" r="10" fill="#222" fill-opacity="0.7"/>
    <circle cx="0" cy="0" r="5" fill="#000" fill-opacity="0.7"/>
  </g>
  <g transform="translate(370, 150)">
    <circle cx="0" cy="0" r="15" fill="#444" fill-opacity="0.7"/>
    <circle cx="0" cy="0" r="10" fill="#222" fill-opacity="0.7"/>
    <circle cx="0" cy="0" r="5" fill="#000" fill-opacity="0.7"/>
  </g>
  
  <!-- Title Area -->
  <rect x="100" y="140" width="200" height="30" rx="5" fill="#000" fill-opacity="0.5"/>
  <rect x="120" y="150" width="160" height="10" rx="2" fill="#fff" fill-opacity="0.8"/>
  <rect x="150" y="170" width="100" height="5" rx="2" fill="#fff" fill-opacity="0.5"/>
</svg> 