<svg width="512" height="512" viewBox="0 0 512 512" fill="none" xmlns="http://www.w3.org/2000/svg">
    <defs>
        <linearGradient id="gradient1" x1="0%" y1="0%" x2="100%" y2="100%">
            <stop offset="0%" stop-color="#FF9A8B" />
            <stop offset="50%" stop-color="#FF6B95" />
            <stop offset="100%" stop-color="#FF8E53" />
        </linearGradient>
        <linearGradient id="gradient2" x1="0%" y1="0%" x2="100%" y2="0%">
            <stop offset="0%" stop-color="#4158D0" />
            <stop offset="50%" stop-color="#C850C0" />
            <stop offset="100%" stop-color="#FFCC70" />
        </linearGradient>
    </defs>
    
    <!-- Background -->
    <circle cx="256" cy="256" r="256" fill="white" />
    
    <!-- Outer ring -->
    <circle cx="256" cy="256" r="240" stroke="url(#gradient1)" stroke-width="4" fill="none" />
    
    <!-- Mandala elements -->
    <g stroke="url(#gradient2)" stroke-width="2" fill="none">
        <!-- Circular patterns -->
        <circle cx="256" cy="256" r="200" />
        <circle cx="256" cy="256" r="160" />
        <circle cx="256" cy="256" r="120" />
        <circle cx="256" cy="256" r="80" />
        <circle cx="256" cy="256" r="40" />
        
        <!-- Radial lines - 24 lines -->
        <g>
            <line x1="256" y1="256" x2="256" y2="16" />
            <line x1="256" y1="256" x2="496" y2="256" />
            <line x1="256" y1="256" x2="256" y2="496" />
            <line x1="256" y1="256" x2="16" y2="256" />
            
            <line x1="256" y1="256" x2="376" y2="76" />
            <line x1="256" y1="256" x2="436" y2="376" />
            <line x1="256" y1="256" x2="136" y2="436" />
            <line x1="256" y1="256" x2="76" y2="136" />
            
            <line x1="256" y1="256" x2="436" y2="136" />
            <line x1="256" y1="256" x2="376" y2="436" />
            <line x1="256" y1="256" x2="76" y2="376" />
            <line x1="256" y1="256" x2="136" y2="76" />
            
            <line x1="256" y1="256" x2="326" y2="46" />
            <line x1="256" y1="256" x2="466" y2="326" />
            <line x1="256" y1="256" x2="186" y2="466" />
            <line x1="256" y1="256" x2="46" y2="186" />
            
            <line x1="256" y1="256" x2="466" y2="186" />
            <line x1="256" y1="256" x2="326" y2="466" />
            <line x1="256" y1="256" x2="46" y2="326" />
            <line x1="256" y1="256" x2="186" y2="46" />
        </g>
        
        <!-- Decorative elements -->
        <g>
            <circle cx="256" cy="16" r="8" fill="#FF6B95" stroke="none" />
            <circle cx="496" cy="256" r="8" fill="#FF6B95" stroke="none" />
            <circle cx="256" cy="496" r="8" fill="#FF6B95" stroke="none" />
            <circle cx="16" cy="256" r="8" fill="#FF6B95" stroke="none" />
        </g>
    </g>
    
    <!-- Center element -->
    <circle cx="256" cy="256" r="16" fill="url(#gradient1)" />
</svg> 